<svg id="Layer_1" data-name="Layer 1" xmlns="http://www.w3.org/2000/svg" xmlns:xlink="http://www.w3.org/1999/xlink"
  viewBox="878.25 -4 749 749">
  <defs>
    <style>
      .cls-1 {
        fill: #11100f;
      }

      .cls-2 {
        fill: url(#linear-gradient);
      }
    </style>
    <linearGradient id="linear-gradient" x1="977.81" y1="333.36" x2="1518.73" y2="333.36"
      gradientUnits="userSpaceOnUse">
      <stop offset="0" stop-color="#f2bf26" />
      <stop offset="0.26" stop-color="#f2a119" />
      <stop offset="0.54" stop-color="#f2890f" />
      <stop offset="0.79" stop-color="#f27a08" />
      <stop offset="1" stop-color="#f27506" />
    </linearGradient>
  </defs>
  <path class="cls-1"
    d="M1077.7,13.84,1542,289.94c63.72,37.89,63.44,130.24-.5,167.75L1077.2,730c-64.94,38.09-146.71-8.74-146.71-84V97.56C930.49,22,1012.76-24.78,1077.7,13.84Z" />
  <path class="cls-2"
    d="M1116.89,232.83h44.52V438h-44.52V351.84h-94.56V438H977.81V232.83h44.52v82.93h94.56Zm80.31-6.4h47.14v41H1197.2ZM1198.66,438V295.1h43.94V438Zm179.82-110.29-24.73,2.62q-18.33,1.76-25.9,10.33t-7.56,22.85V438h-43.94V295.1h42.19v24.15q10.77-24.74,44.52-27.06l12.8-.88Zm140.25,47.14h-93.11q2,17.18,11.2,24.88t26,7.71a69.2,69.2,0,0,0,22-3.63,71,71,0,0,0,19.94-10.33l11.63,29.38a79.14,79.14,0,0,1-25.46,12.81,101.11,101.11,0,0,1-30.11,4.65q-36.09,0-56.89-19.93t-20.8-54.27q0-21.81,9-38.7a66.18,66.18,0,0,1,25-26.33q16-9.45,36.37-9.45,30,0,47.58,19.49t17.6,53Zm-83.94-44.95q-7.43,8-9.17,23.13h56.16q-.88-15.42-7.71-23.28t-19.35-7.85Q1442.19,321.87,1434.79,329.87Z" />
  </svg>